<svg width="24" height="24" viewBox="0 0 24 24" fill="none" xmlns="http://www.w3.org/2000/svg"><mask id="mask0_98382_1342" style="mask-type:alpha" maskUnits="userSpaceOnUse" x="0" y="0" width="24" height="24"><path fill="#D9D9D9" d="M0 0h24v24H0z"/></mask><g mask="url(#mask0_98382_1342)"><path d="M12 22a9.738 9.738 0 01-3.9-.788 10.099 10.099 0 01-3.175-2.137c-.9-.9-1.612-1.958-2.137-3.175A9.738 9.738 0 012 12a9.74 9.74 0 01.788-3.9 10.099 10.099 0 012.137-3.175c.9-.9 1.958-1.612 3.175-2.137A9.738 9.738 0 0112 2a9.74 9.74 0 013.9.788 10.098 10.098 0 013.175 2.137c.9.9 1.613 1.958 2.137 3.175A9.738 9.738 0 0122 12c0 .45-.025.892-.075 1.325a8.21 8.21 0 01-.25 1.275 3.34 3.34 0 00-.813-.675 3.022 3.022 0 00-1.012-.375A8.17 8.17 0 0020 12c0-2.233-.775-4.125-2.325-5.675C16.125 4.775 14.233 4 12 4c-2.233 0-4.125.775-5.675 2.325C4.775 7.875 4 9.767 4 12c0 2.233.775 4.125 2.325 5.675C7.875 19.225 9.767 20 12 20a7.89 7.89 0 002.438-.375c.774-.25 1.487-.6 2.137-1.05a3.51 3.51 0 001.675 1.25A9.871 9.871 0 0112 22zm7.25-4a1.2 1.2 0 01-.887-.363A1.207 1.207 0 0118 16.75c0-.35.12-.646.363-.887.241-.242.537-.363.887-.363s.646.12.887.363c.242.241.363.537.363.887s-.12.646-.363.887a1.207 1.207 0 01-.887.363zm-3.95-1.3L11 12.4V7h2v4.6l3.7 3.7-1.4 1.4z" fill="#FFA501"/></g></svg>