<svg width="24" height="25" viewBox="0 0 24 25" fill="none" xmlns="http://www.w3.org/2000/svg"><mask id="mask0_98331_105" style="mask-type:alpha" maskUnits="userSpaceOnUse" x="0" y="0" width="24" height="25"><path fill="#D9D9D9" d="M0 .663h24v23.354H0z"/></mask><g mask="url(#mask0_98331_105)"><path d="M4 20.125c-.55 0-1.02-.19-1.412-.572A1.85 1.85 0 012 18.178V6.502c0-.535.196-.993.588-1.374A1.95 1.95 0 014 4.555h16c.55 0 1.021.19 1.413.572.391.381.587.84.587 1.374v11.677c0 .536-.196.994-.587 1.375a1.955 1.955 0 01-1.413.572H4zm8-6.812L4 8.448v9.73h16v-9.73l-8 4.865zm0-1.946L20 6.5H4l8 4.866zm-8-2.92V6.502v11.677-9.73z" fill="#FFA501"/></g></svg>