<svg width="33" height="32" viewBox="0 0 33 32" fill="none" xmlns="http://www.w3.org/2000/svg"><mask id="mask0_98395_1632" style="mask-type:alpha" maskUnits="userSpaceOnUse" x="0" y="0" width="33" height="32"><path fill="#D9D9D9" d="M.713 0h32v32h-32z"/></mask><g mask="url(#mask0_98395_1632)"><path d="M2.046 25.333V12l9.334-6.667L20.713 12v.9a9.225 9.225 0 00-1.433.85 8.816 8.816 0 00-1.234 1.083v-1.5L11.38 8.6l-6.667 4.733v9.334H7.38V16h8v6.667h.1a9.335 9.335 0 00.8 2.666h-3.567v-6.666h-2.667v6.666h-8zm29.334-24v13.5a8.816 8.816 0 00-1.234-1.084 9.225 9.225 0 00-1.433-.85V4h-12v1.868l-2.667-1.934v-2.6H31.38zm-8 8h2.666V6.667H23.38v2.666zM24.713 28c-1.845 0-3.417-.65-4.716-1.95-1.3-1.3-1.95-2.872-1.95-4.717 0-1.844.65-3.417 1.95-4.717 1.3-1.3 2.871-1.95 4.716-1.95 1.844 0 3.417.65 4.717 1.95 1.3 1.3 1.95 2.873 1.95 4.717 0 1.845-.65 3.417-1.95 4.718-1.3 1.3-2.873 1.949-4.717 1.949zm-.667-2.667h1.334V22h3.333v-1.333H25.38v-3.334h-1.334v3.334h-3.333V22h3.333v3.333z" fill="#000"/></g></svg>