<svg width="32" height="32" viewBox="0 0 32 32" fill="none" xmlns="http://www.w3.org/2000/svg"><mask id="mask0_98395_1670" style="mask-type:alpha" maskUnits="userSpaceOnUse" x="0" y="0" width="32" height="32"><path fill="#D9D9D9" d="M0 0h32v32H0z"/></mask><g mask="url(#mask0_98395_1670)"><path d="M16 29.333c-3.089-.777-5.639-2.55-7.65-5.317-2.01-2.766-3.017-5.838-3.017-9.216V6.667l10.667-4 10.667 4V14.8c0 3.378-1.006 6.45-3.016 9.216-2.012 2.767-4.562 4.54-7.651 5.317zm0-2.8c2.155-.666 3.956-1.983 5.4-3.949A13.167 13.167 0 0023.933 16H16V5.5l-8 3v6.9c0 .156.022.356.067.6H16v10.533z" fill="#000"/></g></svg>