<svg width="34" height="32" viewBox="0 0 34 32" fill="none" xmlns="http://www.w3.org/2000/svg"><mask id="mask0_98395_1651" style="mask-type:alpha" maskUnits="userSpaceOnUse" x="0" y="0" width="34" height="32"><path fill="#D9D9D9" d="M.543 0h33.148v32H.543z"/></mask><g mask="url(#mask0_98395_1651)"><path d="M6.068 28a2.7 2.7 0 01-1.95-.783c-.542-.522-.813-1.15-.813-1.884V10.667c0-.734.271-1.361.813-1.883A2.705 2.705 0 016.068 8h5.524V5.333c0-.733.271-1.36.813-1.884a2.707 2.707 0 011.95-.782h5.525c.76 0 1.41.26 1.951.782.54.523.81 1.151.81 1.884V8h5.526c.76 0 1.41.261 1.951.784.54.522.811 1.15.811 1.883v14.666c0 .734-.27 1.362-.81 1.884a2.712 2.712 0 01-1.952.783h-22.1zm8.287-20h5.525V5.333h-5.525V8zm13.812 12H21.26v2.667h-8.287V20H6.068v5.333h22.099V20zm-12.431 0h2.762v-2.667h-2.762V20zm-9.668-2.667h6.906v-2.666h8.287v2.666h6.906v-6.666h-22.1v6.666z" fill="#000"/></g></svg>