<svg width="33" height="32" viewBox="0 0 33 32" fill="none" xmlns="http://www.w3.org/2000/svg"><mask id="mask0_98395_1641" style="mask-type:alpha" maskUnits="userSpaceOnUse" x="0" y="0" width="33" height="32"><path fill="#D9D9D9" d="M.11 0h32v32h-32z"/></mask><g mask="url(#mask0_98395_1641)"><path d="M24.11 8a2.569 2.569 0 01-1.883-.784 2.567 2.567 0 01-.783-1.883c0-.733.26-1.36.783-1.884a2.57 2.57 0 011.883-.782c.734 0 1.362.26 1.884.782.522.523.783 1.151.783 1.884 0 .734-.26 1.361-.783 1.883A2.569 2.569 0 0124.11 8zm-1.333 21.333V18.667c0-.89-.227-1.69-.683-2.4a4.929 4.929 0 00-1.75-1.667l1.166-3.433c.178-.556.506-1 .984-1.334a2.755 2.755 0 011.616-.5c.6 0 1.14.167 1.617.5.478.334.806.778.983 1.334l3.4 10.166h-3.333v8h-4zm-6-14a1.926 1.926 0 01-1.416-.584 1.925 1.925 0 01-.584-1.416c0-.555.195-1.027.584-1.416.389-.389.86-.584 1.416-.584.556 0 1.028.195 1.416.584.39.389.584.86.584 1.416 0 .556-.195 1.028-.584 1.416-.388.39-.86.584-1.416.584zM7.444 8c-.734 0-1.361-.26-1.884-.784a2.565 2.565 0 01-.784-1.883c0-.733.261-1.36.784-1.884a2.567 2.567 0 011.883-.782c.733 0 1.36.26 1.882.782.523.523.784 1.151.784 1.884a2.56 2.56 0 01-.784 1.883A2.565 2.565 0 017.444 8zM4.777 29.333V20h-2v-8c0-.733.261-1.361.784-1.884a2.567 2.567 0 011.883-.783h4c.733 0 1.36.261 1.882.783.523.523.784 1.15.784 1.884v8h-2v9.333H4.777zm10 0V24h-1.333v-5.333c0-.556.194-1.028.584-1.416.388-.39.86-.584 1.416-.584h2.666c.556 0 1.028.194 1.416.584.39.388.584.86.584 1.416V24h-1.333v5.333h-4z" fill="#000"/></g></svg>