<svg width="33" height="32" viewBox="0 0 33 32" fill="none" xmlns="http://www.w3.org/2000/svg"><mask id="mask0_98395_1623" style="mask-type:alpha" maskUnits="userSpaceOnUse" x="0" y="0" width="33" height="32"><path fill="#D9D9D9" d="M.398 0h32v32h-32z"/></mask><g mask="url(#mask0_98395_1623)"><path d="M16.231 26.666a.591.591 0 00.267-.066.778.778 0 00.2-.134L27.63 15.534a2.46 2.46 0 00.584-.9 2.857 2.857 0 000-2.017 2.21 2.21 0 00-.584-.85L21.964 6.1a2.21 2.21 0 00-.849-.584 2.857 2.857 0 00-2.017 0 2.47 2.47 0 00-.9.584l-.367.367 2.467 2.5c.333.31.577.666.733 1.066.155.4.233.822.233 1.267 0 .933-.316 1.716-.949 2.35-.634.633-1.417.95-2.35.95a3.59 3.59 0 01-1.283-.233 3.032 3.032 0 01-1.084-.7l-2.5-2.467-5.834 5.833a.63.63 0 00-.2.467c0 .178.067.338.2.483a.592.592 0 00.733.15.775.775 0 00.2-.133l4.534-4.534 1.867 1.867-4.5 4.533a.705.705 0 00-.151.216.64.64 0 00-.05.251.64.64 0 00.2.467.64.64 0 00.467.2.592.592 0 00.267-.067.776.776 0 00.2-.133l4.533-4.5 1.867 1.866-4.5 4.534a.396.396 0 00-.15.2.746.746 0 00-.05.267.64.64 0 00.2.466.64.64 0 00.717.15.684.684 0 00.216-.15l4.534-4.5L20.264 21l-4.533 4.533a.681.681 0 00-.15.216.616.616 0 00.167.717c.144.134.305.2.483.2zm-.033 2.667c-.823 0-1.55-.272-2.183-.817a3.178 3.178 0 01-1.117-2.05c-.756-.11-1.39-.422-1.9-.933-.511-.51-.823-1.144-.934-1.9-.755-.11-1.383-.427-1.882-.95a3.392 3.392 0 01-.918-1.883c-.844-.111-1.533-.478-2.066-1.1-.534-.622-.8-1.356-.8-2.2 0-.445.083-.873.25-1.284.167-.41.405-.772.716-1.083l7.734-7.7 4.366 4.367a.396.396 0 00.2.15c.09.033.178.05.267.05.2 0 .367-.061.5-.183a.627.627 0 00.2-.484.766.766 0 00-.05-.267.403.403 0 00-.15-.2L13.664 6.1a2.208 2.208 0 00-.85-.584 2.847 2.847 0 00-1.016-.183c-.334 0-.667.061-1 .183a2.47 2.47 0 00-.9.584l-4.7 4.733c-.2.2-.367.434-.5.7a2.824 2.824 0 00-.267.8 2.514 2.514 0 00.267 1.6l-1.934 1.934a5.3 5.3 0 01-.833-1.685 5.233 5.233 0 01.267-3.666 5.342 5.342 0 011.1-1.583l4.7-4.7a5.624 5.624 0 011.784-1.166 5.302 5.302 0 012.016-.4c.688 0 1.36.133 2.016.4.656.266 1.24.655 1.75 1.166l.367.367.367-.367a5.628 5.628 0 011.782-1.166 5.312 5.312 0 012.018-.4c.689 0 1.361.133 2.017.4a5.256 5.256 0 011.75 1.166l5.633 5.634c.51.51.9 1.1 1.166 1.766.267.667.4 1.345.4 2.034a5.3 5.3 0 01-.4 2.015 5.251 5.251 0 01-1.166 1.751l-10.934 10.9a3.456 3.456 0 01-1.084.734c-.41.177-.838.266-1.282.266z" fill="#000"/></g></svg>