<svg width="153" height="56" viewBox="0 0 153 56" fill="none" xmlns="http://www.w3.org/2000/svg"><g filter="url(#filter0_b_98395_1754)"><path stroke="#FFA501" stroke-width="3" d="M2 54.5h147"/><g filter="url(#filter1_d_98395_1754)"><path d="M32.852.728V26h-6.156V10.844L21.044 26h-4.968l-5.688-15.192V26H4.232V.728h7.272l7.092 17.496L25.616.728h7.236zM43.435 5.66v5.112h8.244v4.752h-8.244v5.544h9.324V26h-15.48V.728h15.48V5.66h-9.324zM62.91 21.248h8.064V26h-14.22V.728h6.156v20.52zM96.52 26h-6.156L80.068 10.412V26h-6.156V.728h6.156l10.296 15.66V.728h6.156V26zM122.654.728l-8.748 16.92V26h-6.156v-8.352L99.002.728h6.984l4.896 10.584 4.86-10.584h6.912zM139.786 26l-8.496-11.16V26h-6.156V.728h6.156v11.088L139.714.728h7.236l-9.792 12.384L147.31 26h-7.524z" fill="#fff"/></g><path d="M6.36 44.52h4.88V46h-6.7V32.06h1.82v12.46zm24.653-1.62h-6.08l-1.12 3.1h-1.92l5.04-13.86h2.1L34.053 46h-1.92l-1.12-3.1zm-.52-1.48l-2.52-7.04-2.52 7.04h5.04zm32.876-9.36L59.33 46h-2.04l-3.24-11.22L50.69 46l-2.02.02-3.9-13.96h1.94l3.04 11.82 3.36-11.82h2.04l3.2 11.78 3.06-11.78h1.96zm21.352 0l-4.54 8.68V46h-1.82v-5.26l-4.56-8.68h2.02l3.44 7.06 3.44-7.06h2.02zm13.34 1.48v4.66h5.08v1.5h-5.08v4.8h5.68V46h-7.5V32.04h7.5v1.5h-5.68zM123.435 46l-3.32-5.7h-2.2V46h-1.82V32.06h4.5c1.053 0 1.94.18 2.66.54.733.36 1.28.847 1.64 1.46.36.613.54 1.313.54 2.1 0 .96-.28 1.807-.84 2.54-.547.733-1.374 1.22-2.48 1.46l3.5 5.84h-2.18zm-5.52-7.16h2.68c.986 0 1.726-.24 2.22-.72.493-.493.74-1.147.74-1.96 0-.827-.247-1.467-.74-1.92-.48-.453-1.22-.68-2.22-.68h-2.68v5.28zm24.368 7.3c-.92 0-1.747-.16-2.48-.48-.72-.333-1.287-.787-1.7-1.36-.414-.587-.627-1.26-.64-2.02h1.94a2.61 2.61 0 00.8 1.66c.48.44 1.173.66 2.08.66.866 0 1.546-.213 2.04-.64.506-.44.76-1 .76-1.68 0-.533-.147-.967-.44-1.3a2.816 2.816 0 00-1.1-.76c-.44-.173-1.034-.36-1.78-.56-.92-.24-1.66-.48-2.22-.72a3.684 3.684 0 01-1.42-1.12c-.387-.52-.58-1.213-.58-2.08 0-.76.193-1.433.58-2.02.386-.587.926-1.04 1.62-1.36.706-.32 1.513-.48 2.42-.48 1.306 0 2.373.327 3.2.98.84.653 1.313 1.52 1.42 2.6h-2c-.067-.533-.347-1-.84-1.4-.494-.413-1.147-.62-1.96-.62-.76 0-1.38.2-1.86.6-.48.387-.72.933-.72 1.64 0 .507.14.92.42 1.24.293.32.646.567 1.06.74.426.16 1.02.347 1.78.56.92.253 1.66.507 2.22.76.56.24 1.04.62 1.44 1.14.4.507.6 1.2.6 2.08 0 .68-.18 1.32-.54 1.92-.36.6-.894 1.087-1.6 1.46-.707.373-1.54.56-2.5.56z" fill="#fff"/></g><defs><filter id="filter0_b_98395_1754" x="-2" y="-3.272" width="155" height="63.272" filterUnits="userSpaceOnUse" color-interpolation-filters="sRGB"><feFlood flood-opacity="0" result="BackgroundImageFix"/><feGaussianBlur in="BackgroundImageFix" stdDeviation="2"/><feComposite in2="SourceAlpha" operator="in" result="effect1_backgroundBlur_98395_1754"/><feBlend in="SourceGraphic" in2="effect1_backgroundBlur_98395_1754" result="shape"/></filter><filter id="filter1_d_98395_1754" x=".232" y=".728" width="151.078" height="33.272" filterUnits="userSpaceOnUse" color-interpolation-filters="sRGB"><feFlood flood-opacity="0" result="BackgroundImageFix"/><feColorMatrix in="SourceAlpha" values="0 0 0 0 0 0 0 0 0 0 0 0 0 0 0 0 0 0 127 0" result="hardAlpha"/><feOffset dy="4"/><feGaussianBlur stdDeviation="2"/><feComposite in2="hardAlpha" operator="out"/><feColorMatrix values="0 0 0 0 0 0 0 0 0 0 0 0 0 0 0 0 0 0 0.25 0"/><feBlend in2="BackgroundImageFix" result="effect1_dropShadow_98395_1754"/><feBlend in="SourceGraphic" in2="effect1_dropShadow_98395_1754" result="shape"/></filter></defs></svg>