<svg width="42" height="42" viewBox="0 0 42 42" fill="none" xmlns="http://www.w3.org/2000/svg"><path d="M0 13.125v15.75C0 36.123 5.877 42 13.125 42h15.75C36.123 42 42 36.123 42 28.875v-15.75C42 5.877 36.123 0 28.875 0h-15.75C5.877 0 0 5.877 0 13.125zm28.875-9.188c5.066 0 9.188 4.122 9.188 9.188v15.75c0 5.066-4.122 9.188-9.188 9.188h-15.75c-5.066 0-9.188-4.122-9.188-9.188v-15.75c0-5.066 4.122-9.188 9.188-9.188h15.75z" fill="#fff"/><path d="M10.5 21c0 5.799 4.701 10.5 10.5 10.5S31.5 26.799 31.5 21 26.799 10.5 21 10.5 10.5 15.201 10.5 21zm17.063 0A6.572 6.572 0 0121 27.563 6.57 6.57 0 0114.437 21 6.57 6.57 0 0121 14.437 6.572 6.572 0 0127.563 21zM11.111 9.712a1.4 1.4 0 10-2.798 0 1.4 1.4 0 002.798 0z" fill="#fff"/></svg>