<svg width="226" height="80" viewBox="0 0 226 80" fill="none" xmlns="http://www.w3.org/2000/svg"><g filter="url(#filter0_b_98395_1410)"><g filter="url(#filter1_d_98395_1410)"><path d="M34.864 16.696c2.496 0 4.476.756 5.94 2.268 1.488 1.512 2.232 3.612 2.232 6.3V37h-6.12V26.092c0-1.296-.348-2.292-1.044-2.988-.672-.72-1.608-1.08-2.808-1.08-1.2 0-2.148.36-2.844 1.08-.672.696-1.008 1.692-1.008 2.988V37h-6.12V26.092c0-1.296-.348-2.292-1.044-2.988-.672-.72-1.608-1.08-2.808-1.08-1.2 0-2.148.36-2.844 1.08-.672.696-1.008 1.692-1.008 2.988V37H9.232V16.912h6.156v2.52c.624-.84 1.44-1.5 2.448-1.98 1.008-.504 2.148-.756 3.42-.756 1.512 0 2.856.324 4.032.972a6.938 6.938 0 012.808 2.772c.696-1.104 1.644-2.004 2.844-2.7a7.684 7.684 0 013.924-1.044zm21.801 20.592c-1.968 0-3.744-.42-5.328-1.26-1.56-.84-2.796-2.04-3.708-3.6-.888-1.56-1.332-3.384-1.332-5.472 0-2.064.456-3.876 1.368-5.436.912-1.584 2.16-2.796 3.744-3.636 1.584-.84 3.36-1.26 5.328-1.26 1.968 0 3.744.42 5.328 1.26 1.584.84 2.832 2.052 3.744 3.636.912 1.56 1.368 3.372 1.368 5.436s-.468 3.888-1.404 5.472a9.258 9.258 0 01-3.78 3.6c-1.584.84-3.36 1.26-5.328 1.26zm0-5.328c1.176 0 2.172-.432 2.988-1.296.84-.864 1.26-2.1 1.26-3.708s-.408-2.844-1.224-3.708c-.792-.864-1.776-1.296-2.952-1.296-1.2 0-2.196.432-2.988 1.296-.792.84-1.188 2.076-1.188 3.708 0 1.608.384 2.844 1.152 3.708.792.864 1.776 1.296 2.952 1.296zm26.198-15.264c2.352 0 4.224.768 5.616 2.304 1.416 1.512 2.124 3.6 2.124 6.264V37h-6.12V26.092c0-1.344-.348-2.388-1.044-3.132-.696-.744-1.632-1.116-2.808-1.116s-2.112.372-2.808 1.116c-.696.744-1.044 1.788-1.044 3.132V37h-6.156V16.912h6.156v2.664c.624-.888 1.464-1.584 2.52-2.088 1.056-.528 2.244-.792 3.564-.792zm21.342 20.592c-1.968 0-3.744-.42-5.328-1.26-1.56-.84-2.796-2.04-3.708-3.6-.888-1.56-1.332-3.384-1.332-5.472 0-2.064.456-3.876 1.368-5.436.912-1.584 2.16-2.796 3.744-3.636 1.584-.84 3.36-1.26 5.328-1.26 1.968 0 3.744.42 5.328 1.26 1.584.84 2.832 2.052 3.744 3.636.912 1.56 1.368 3.372 1.368 5.436s-.468 3.888-1.404 5.472a9.258 9.258 0 01-3.78 3.6c-1.584.84-3.36 1.26-5.328 1.26zm0-5.328c1.176 0 2.172-.432 2.988-1.296.84-.864 1.26-2.1 1.26-3.708s-.408-2.844-1.224-3.708c-.792-.864-1.776-1.296-2.952-1.296-1.2 0-2.196.432-2.988 1.296-.792.84-1.188 2.076-1.188 3.708 0 1.608.384 2.844 1.152 3.708.792.864 1.776 1.296 2.952 1.296zm20.114-12.204c.6-.936 1.428-1.692 2.484-2.268 1.056-.576 2.292-.864 3.708-.864 1.656 0 3.156.42 4.5 1.26 1.344.84 2.4 2.04 3.168 3.6.792 1.56 1.188 3.372 1.188 5.436s-.396 3.888-1.188 5.472c-.768 1.56-1.824 2.772-3.168 3.636-1.344.84-2.844 1.26-4.5 1.26-1.392 0-2.628-.288-3.708-.864-1.056-.576-1.884-1.32-2.484-2.232v12.384h-6.156V16.912h6.156v2.844zm8.784 7.164c0-1.536-.432-2.736-1.296-3.6-.84-.888-1.884-1.332-3.132-1.332-1.224 0-2.268.444-3.132 1.332-.84.888-1.26 2.1-1.26 3.636s.42 2.748 1.26 3.636c.864.888 1.908 1.332 3.132 1.332 1.224 0 2.268-.444 3.132-1.332.864-.912 1.296-2.136 1.296-3.672zm18.818 10.368c-1.968 0-3.744-.42-5.328-1.26-1.56-.84-2.796-2.04-3.708-3.6-.888-1.56-1.332-3.384-1.332-5.472 0-2.064.456-3.876 1.368-5.436.912-1.584 2.16-2.796 3.744-3.636 1.584-.84 3.36-1.26 5.328-1.26 1.968 0 3.744.42 5.328 1.26 1.584.84 2.832 2.052 3.744 3.636.912 1.56 1.368 3.372 1.368 5.436s-.468 3.888-1.404 5.472a9.258 9.258 0 01-3.78 3.6c-1.584.84-3.36 1.26-5.328 1.26zm0-5.328c1.176 0 2.172-.432 2.988-1.296.84-.864 1.26-2.1 1.26-3.708s-.408-2.844-1.224-3.708c-.792-.864-1.776-1.296-2.952-1.296-1.2 0-2.196.432-2.988 1.296-.792.84-1.188 2.076-1.188 3.708 0 1.608.384 2.844 1.152 3.708.792.864 1.776 1.296 2.952 1.296zm20.113-21.6V37h-6.156V10.36h6.156zm7.738 4.464c-1.08 0-1.968-.312-2.664-.936a3.174 3.174 0 01-1.008-2.376c0-.96.336-1.752 1.008-2.376.696-.648 1.584-.972 2.664-.972 1.056 0 1.92.324 2.592.972.696.624 1.044 1.416 1.044 2.376 0 .936-.348 1.728-1.044 2.376-.672.624-1.536.936-2.592.936zm3.06 2.088V37h-6.156V16.912h6.156zm3.417 10.008c0-2.064.384-3.876 1.152-5.436.792-1.56 1.86-2.76 3.204-3.6 1.344-.84 2.844-1.26 4.5-1.26 1.416 0 2.652.288 3.708.864 1.08.576 1.908 1.332 2.484 2.268v-2.844h6.156V37h-6.156v-2.844c-.6.936-1.44 1.692-2.52 2.268-1.056.576-2.292.864-3.708.864-1.632 0-3.12-.42-4.464-1.26-1.344-.864-2.412-2.076-3.204-3.636-.768-1.584-1.152-3.408-1.152-5.472zm15.048.036c0-1.536-.432-2.748-1.296-3.636-.84-.888-1.872-1.332-3.096-1.332s-2.268.444-3.132 1.332c-.84.864-1.26 2.064-1.26 3.6s.42 2.76 1.26 3.672c.864.888 1.908 1.332 3.132 1.332 1.224 0 2.256-.444 3.096-1.332.864-.888 1.296-2.1 1.296-3.636z" fill="#fff"/><path d="M173.006 64.78V70h-3.132c-2.232 0-3.972-.54-5.22-1.62-1.248-1.104-1.872-2.892-1.872-5.364v-7.992h-2.448v-5.112h2.448v-4.896h6.156v4.896h4.032v5.112h-4.032v8.064c0 .6.144 1.032.432 1.296.288.264.768.396 1.44.396h2.196zm23.265-14.868V70h-6.156v-2.736c-.624.888-1.476 1.608-2.556 2.16-1.056.528-2.232.792-3.528.792-1.536 0-2.892-.336-4.068-1.008-1.176-.696-2.088-1.692-2.736-2.988-.648-1.296-.972-2.82-.972-4.572V49.912h6.12V60.82c0 1.344.348 2.388 1.044 3.132.696.744 1.632 1.116 2.808 1.116 1.2 0 2.148-.372 2.844-1.116.696-.744 1.044-1.788 1.044-3.132V49.912h6.156zm15.618 14.868V70h-3.132c-2.232 0-3.972-.54-5.22-1.62-1.248-1.104-1.872-2.892-1.872-5.364v-7.992h-2.448v-5.112h2.448v-4.896h6.156v4.896h4.032v5.112h-4.032v8.064c0 .6.144 1.032.432 1.296.288.264.768.396 1.44.396h2.196zm6.309 5.508c-1.08 0-1.968-.312-2.664-.936a3.174 3.174 0 01-1.008-2.376c0-.96.336-1.764 1.008-2.412.696-.648 1.584-.972 2.664-.972 1.056 0 1.92.324 2.592.972.696.648 1.044 1.452 1.044 2.412 0 .936-.348 1.728-1.044 2.376-.672.624-1.536.936-2.592.936z" fill="#FFA501"/></g><path d="M0 68h160M0 2h219M2 69V1m218 44V1" stroke="#FFA501" stroke-width="3"/></g><defs><filter id="filter0_b_98395_1410" x="-4" y="-3.5" width="229.834" height="77.788" filterUnits="userSpaceOnUse" color-interpolation-filters="sRGB"><feFlood flood-opacity="0" result="BackgroundImageFix"/><feGaussianBlur in="BackgroundImageFix" stdDeviation="2"/><feComposite in2="SourceAlpha" operator="in" result="effect1_backgroundBlur_98395_1410"/><feBlend in="SourceGraphic" in2="effect1_backgroundBlur_98395_1410" result="shape"/></filter><filter id="filter1_d_98395_1410" x="5.232" y="8.164" width="220.602" height="70.124" filterUnits="userSpaceOnUse" color-interpolation-filters="sRGB"><feFlood flood-opacity="0" result="BackgroundImageFix"/><feColorMatrix in="SourceAlpha" values="0 0 0 0 0 0 0 0 0 0 0 0 0 0 0 0 0 0 127 0" result="hardAlpha"/><feOffset dy="4"/><feGaussianBlur stdDeviation="2"/><feComposite in2="hardAlpha" operator="out"/><feColorMatrix values="0 0 0 0 0 0 0 0 0 0 0 0 0 0 0 0 0 0 0.25 0"/><feBlend in2="BackgroundImageFix" result="effect1_dropShadow_98395_1410"/><feBlend in="SourceGraphic" in2="effect1_dropShadow_98395_1410" result="shape"/></filter></defs></svg>