<svg width="24" height="25" viewBox="0 0 24 25" fill="none" xmlns="http://www.w3.org/2000/svg"><mask id="mask0_98331_102" style="mask-type:alpha" maskUnits="userSpaceOnUse" x="0" y="0" width="24" height="25"><path fill="#D9D9D9" d="M0 .973h24v23.354H0z"/></mask><g mask="url(#mask0_98331_102)"><path d="M19.95 21.408c-2.15 0-4.246-.466-6.287-1.4a19.058 19.058 0 01-5.425-3.697 18.538 18.538 0 01-3.8-5.28C3.479 9.046 3 7.007 3 4.915c0-.292.1-.535.3-.73.2-.194.45-.292.75-.292H8.1c.233 0 .442.073.625.22a.85.85 0 01.325.559l.65 3.406c.033.227.03.433-.012.62a.992.992 0 01-.288.499L6.975 11.58c.7 1.168 1.58 2.262 2.638 3.284a18.565 18.565 0 003.487 2.652l2.35-2.287c.15-.146.346-.256.588-.33.241-.072.479-.092.712-.06l3.45.682c.233.048.425.158.575.328.15.17.225.37.225.596v3.941c0 .292-.1.535-.3.73-.2.195-.45.292-.75.292zM6.025 9.73l1.65-1.606L7.25 5.84H5.025c.083.664.2 1.321.35 1.97.15.649.367 1.29.65 1.922zm8.95 8.709a12.64 12.64 0 004.025.973v-2.14l-2.35-.463-1.675 1.63z" fill="#FFA501"/></g></svg>