<svg width="64" height="64" viewBox="0 0 64 64" fill="none" xmlns="http://www.w3.org/2000/svg"><mask id="mask0_101058_19" style="mask-type:alpha" maskUnits="userSpaceOnUse" x="0" y="0" width="64" height="64"><path fill="#D9D9D9" d="M0 0h64v64H0z"/></mask><g mask="url(#mask0_101058_19)"><path d="M16.533 55.4c-2.31 0-4.333-.756-6.066-2.267C8.733 51.622 7.777 49.71 7.6 47.4h-7V17c0-2.356.811-4.345 2.433-5.967C4.656 9.41 6.645 8.6 9 8.6h37.333v9.666h7.334l9.733 13V47.4h-6.467c-.177 2.31-1.133 4.222-2.866 5.733C52.333 54.644 50.31 55.4 48 55.4c-2.311 0-4.333-.756-6.067-2.267-1.733-1.511-2.688-3.422-2.866-5.733H25.4c-.178 2.266-1.122 4.166-2.833 5.7-1.711 1.533-3.723 2.3-6.034 2.3zm0-6.4c.756 0 1.39-.256 1.9-.767.512-.511.767-1.144.767-1.9s-.255-1.389-.767-1.9c-.51-.511-1.144-.767-1.9-.767-.755 0-1.389.256-1.9.767-.51.511-.766 1.144-.766 1.9s.255 1.389.766 1.9c.512.511 1.145.767 1.9.767zM9 39h2.467a12.108 12.108 0 012.4-1.2 7.652 7.652 0 012.666-.467c.934 0 1.833.153 2.699.458A8.587 8.587 0 0121.533 39h16.4V17H9v22zm39 10c.756 0 1.389-.256 1.9-.767.511-.511.767-1.144.767-1.9s-.256-1.389-.767-1.9c-.511-.511-1.144-.767-1.9-.767-.755 0-1.389.256-1.9.767-.511.511-.767 1.144-.767 1.9s.256 1.389.767 1.9c.511.511 1.145.767 1.9.767zm-1.667-14.334h9.134l-6-8h-3.134v8z" fill="#1C1B1F"/></g></svg>