<svg width="24" height="24" viewBox="0 0 24 24" fill="none" xmlns="http://www.w3.org/2000/svg"><mask id="mask0_98381_1138" style="mask-type:alpha" maskUnits="userSpaceOnUse" x="0" y="0" width="24" height="24"><path fill="#D9D9D9" d="M0 0h24v24H0z"/></mask><g mask="url(#mask0_98381_1138)"><path d="M12 22a9.738 9.738 0 01-3.9-.788 10.099 10.099 0 01-3.175-2.137c-.9-.9-1.612-1.958-2.137-3.175A9.738 9.738 0 012 12a9.74 9.74 0 01.788-3.9 10.099 10.099 0 012.137-3.175c.9-.9 1.958-1.612 3.175-2.137A9.738 9.738 0 0112 2a9.957 9.957 0 014 .825v2.25a8.427 8.427 0 00-1.887-.788A7.697 7.697 0 0012 4c-2.217 0-4.104.78-5.662 2.338C4.779 7.896 4 9.783 4 12s.78 4.104 2.338 5.663C7.896 19.22 9.783 20 12 20s4.104-.78 5.663-2.337C19.22 16.104 20 14.217 20 12c0-.533-.054-1.05-.163-1.55A9.405 9.405 0 0019.4 9h2.15a9.988 9.988 0 01.45 3 9.738 9.738 0 01-.788 3.9 10.098 10.098 0 01-2.137 3.175c-.9.9-1.958 1.613-3.175 2.137A9.738 9.738 0 0112 22zm8-15V5h-2V3h2V1h2v2h2v2h-2v2h-2zm-4.5 4c.417 0 .77-.146 1.063-.438.291-.291.437-.645.437-1.062 0-.417-.146-.77-.438-1.063A1.447 1.447 0 0015.5 8c-.417 0-.77.146-1.063.438A1.446 1.446 0 0014 9.5c0 .417.146.77.438 1.063.291.291.645.437 1.062.437zm-7 0c.417 0 .77-.146 1.063-.438.291-.291.437-.645.437-1.062 0-.417-.146-.77-.438-1.063A1.447 1.447 0 008.5 8c-.417 0-.77.146-1.063.438A1.447 1.447 0 007 9.5c0 .417.146.77.438 1.063.291.291.645.437 1.062.437zm3.5 6.5c1.133 0 2.162-.32 3.088-.962A5.485 5.485 0 0017.1 14H6.9a5.485 5.485 0 002.012 2.538A5.294 5.294 0 0012 17.5z" fill="#FFA501"/></g></svg>