<svg width="24" height="24" viewBox="0 0 24 24" fill="none" xmlns="http://www.w3.org/2000/svg"><mask id="mask0_98358_167" style="mask-type:alpha" maskUnits="userSpaceOnUse" x="0" y="0" width="24" height="24"><path fill="#D9D9D9" d="M0 0h24v23.354H0z"/></mask><g mask="url(#mask0_98358_167)"><path d="M10 13.623c-.833 0-1.542-.284-2.125-.851A2.778 2.778 0 017 10.704c0-.357.058-.694.175-1.01.117-.316.292-.604.525-.863a2.591 2.591 0 01-.15-.511 2.908 2.908 0 01-.05-.535c0-.617.17-1.164.512-1.643.342-.478.788-.83 1.338-1.058a3.621 3.621 0 011.175-.875c.45-.211.942-.317 1.475-.317.533 0 1.025.106 1.475.317.45.21.842.502 1.175.875.55.227.996.58 1.338 1.058.341.479.512 1.026.512 1.643 0 .178-.017.356-.05.535a2.587 2.587 0 01-.15.51c.233.26.408.548.525.864.117.316.175.653.175 1.01 0 .81-.292 1.5-.875 2.068-.583.567-1.292.851-2.125.851h-4zm0-1.946h4a.962.962 0 00.713-.292.942.942 0 00.287-.681.8.8 0 00-.062-.316 1.161 1.161 0 00-.188-.292 1.662 1.662 0 01-.362-.621 2.055 2.055 0 01-.088-.571c0-.26.033-.483.1-.67.067-.186.1-.336.1-.45a.896.896 0 00-.175-.535 1.086 1.086 0 00-.45-.364 2.773 2.773 0 01-.412-.22 1.361 1.361 0 01-.338-.316 1.878 1.878 0 00-.412-.328c-.192-.122-.43-.182-.713-.182s-.52.064-.712.194a2.14 2.14 0 00-.413.34c-.1.114-.212.212-.337.293a2.816 2.816 0 01-.413.219 1.086 1.086 0 00-.45.364.896.896 0 00-.175.536c0 .113.033.263.1.45.067.186.1.41.1.669 0 .178-.029.369-.087.57-.059.204-.18.41-.363.622a1.16 1.16 0 00-.188.292.8.8 0 00-.062.316c0 .26.096.486.288.681a.958.958 0 00.712.292zm-6 9.73v-2.724c0-.551.146-1.058.438-1.52A2.882 2.882 0 015.6 16.105a15.128 15.128 0 013.15-1.132 14.136 14.136 0 013.25-.377c1.1 0 2.183.126 3.25.377 1.067.252 2.117.629 3.15 1.132.483.243.87.596 1.162 1.058.292.462.438.969.438 1.52v2.725H4zm2-1.945h12v-.779a.9.9 0 00-.137-.486.966.966 0 00-.363-.34c-.9-.439-1.808-.767-2.725-.987a11.923 11.923 0 00-5.55 0c-.917.22-1.825.548-2.725.986a.959.959 0 00-.362.34.894.894 0 00-.138.487v.779z" fill="#FFA501"/></g></svg>